<?xml version="1.0" encoding="UTF-8" standalone="no"?>
<!DOCTYPE svg PUBLIC "-//W3C//DTD SVG 1.1//EN" "http://www.w3.org/Graphics/SVG/1.1/DTD/svg11.dtd">
<svg width="100%" height="100%" viewBox="0 0 300 60" version="1.1" xmlns="http://www.w3.org/2000/svg" xmlns:xlink="http://www.w3.org/1999/xlink" xml:space="preserve" xmlns:serif="http://www.serif.com/" style="fill-rule:evenodd;clip-rule:evenodd;stroke-linejoin:round;stroke-miterlimit:2;">
    <g transform="matrix(1,0,0,1,2.66454e-14,86.5951)">
        <g transform="matrix(6.45894,0,0,6.45894,-277.308,-370.408)">
            <g transform="matrix(12,0,0,12,41.9437,52.9412)">
                <path d="M0.083,-0.718L0.244,-0.718C0.349,-0.718 0.426,-0.705 0.477,-0.679C0.528,-0.654 0.57,-0.611 0.603,-0.553C0.635,-0.495 0.652,-0.427 0.652,-0.349C0.652,-0.294 0.643,-0.243 0.624,-0.197C0.606,-0.15 0.581,-0.112 0.548,-0.081C0.516,-0.05 0.481,-0.029 0.443,-0.018C0.405,-0.006 0.34,-0 0.247,-0L0.083,-0L0.083,-0.718ZM0.218,-0.586L0.218,-0.133L0.282,-0.133C0.344,-0.133 0.39,-0.14 0.418,-0.155C0.446,-0.169 0.469,-0.193 0.487,-0.227C0.505,-0.261 0.514,-0.303 0.514,-0.352C0.514,-0.429 0.492,-0.488 0.45,-0.53C0.411,-0.568 0.35,-0.586 0.265,-0.586L0.218,-0.586Z" style="fill:rgb(66,185,231);fill-rule:nonzero;"/>
            </g>
            <g transform="matrix(12,0,0,12,50.3461,52.9412)">
                <path d="M0.119,-0.75C0.143,-0.75 0.163,-0.742 0.18,-0.725C0.196,-0.708 0.205,-0.687 0.205,-0.663C0.205,-0.639 0.196,-0.619 0.18,-0.602C0.163,-0.586 0.143,-0.577 0.12,-0.577C0.097,-0.577 0.076,-0.586 0.06,-0.603C0.043,-0.62 0.035,-0.641 0.035,-0.665C0.035,-0.688 0.043,-0.708 0.059,-0.725C0.076,-0.742 0.096,-0.75 0.119,-0.75ZM0.053,-0.531L0.186,-0.531L0.186,-0L0.053,-0L0.053,-0.531Z" style="fill:rgb(66,185,231);fill-rule:nonzero;"/>
            </g>
            <g transform="matrix(12,0,0,12,53.223,52.9412)">
                <path d="M0.082,-0L0.082,-0.718L0.195,-0.718C0.26,-0.718 0.308,-0.714 0.339,-0.706C0.382,-0.694 0.416,-0.673 0.441,-0.642C0.467,-0.611 0.479,-0.575 0.479,-0.533C0.479,-0.505 0.474,-0.481 0.462,-0.458C0.451,-0.436 0.432,-0.415 0.406,-0.396C0.449,-0.375 0.481,-0.349 0.501,-0.319C0.522,-0.288 0.532,-0.251 0.532,-0.209C0.532,-0.169 0.521,-0.132 0.5,-0.099C0.48,-0.066 0.453,-0.041 0.42,-0.025C0.387,-0.008 0.341,-0 0.283,-0L0.082,-0ZM0.219,-0.588L0.219,-0.437L0.249,-0.437C0.282,-0.437 0.307,-0.444 0.323,-0.458C0.339,-0.472 0.347,-0.491 0.347,-0.515C0.347,-0.537 0.339,-0.555 0.324,-0.568C0.309,-0.581 0.285,-0.588 0.254,-0.588L0.219,-0.588ZM0.219,-0.314L0.219,-0.13L0.253,-0.13C0.31,-0.13 0.348,-0.138 0.368,-0.152C0.388,-0.166 0.397,-0.187 0.397,-0.214C0.397,-0.245 0.386,-0.27 0.363,-0.288C0.34,-0.306 0.301,-0.314 0.247,-0.314L0.219,-0.314Z" style="fill:rgb(66,185,231);fill-rule:nonzero;"/>
            </g>
            <g transform="matrix(12,0,0,12,60.184,52.9412)">
                <path d="M0.459,-0.531L0.593,-0.531L0.593,-0L0.459,-0L0.459,-0.056C0.433,-0.031 0.407,-0.014 0.381,-0.003C0.355,0.008 0.327,0.014 0.296,0.014C0.227,0.014 0.168,-0.013 0.118,-0.066C0.068,-0.119 0.043,-0.186 0.043,-0.265C0.043,-0.347 0.067,-0.414 0.116,-0.466C0.164,-0.519 0.223,-0.545 0.292,-0.545C0.324,-0.545 0.354,-0.539 0.382,-0.527C0.41,-0.515 0.436,-0.497 0.459,-0.473L0.459,-0.531ZM0.319,-0.422C0.278,-0.422 0.244,-0.407 0.217,-0.378C0.189,-0.349 0.176,-0.312 0.176,-0.266C0.176,-0.22 0.19,-0.182 0.217,-0.153C0.245,-0.123 0.279,-0.108 0.32,-0.108C0.362,-0.108 0.396,-0.123 0.424,-0.152C0.452,-0.181 0.465,-0.219 0.465,-0.267C0.465,-0.313 0.452,-0.35 0.424,-0.379C0.396,-0.408 0.362,-0.422 0.319,-0.422Z" style="fill:rgb(66,185,231);fill-rule:nonzero;"/>
            </g>
            <g transform="matrix(12,0,0,12,68.1058,52.9412)">
                <path d="M0.067,-0.531L0.201,-0.531L0.201,-0.477C0.231,-0.502 0.258,-0.52 0.283,-0.53C0.307,-0.54 0.332,-0.545 0.358,-0.545C0.411,-0.545 0.456,-0.527 0.492,-0.49C0.523,-0.458 0.539,-0.412 0.539,-0.351L0.539,-0L0.407,-0L0.407,-0.233C0.407,-0.296 0.404,-0.338 0.398,-0.359C0.393,-0.38 0.383,-0.396 0.368,-0.407C0.354,-0.417 0.337,-0.423 0.316,-0.423C0.289,-0.423 0.266,-0.414 0.247,-0.396C0.227,-0.378 0.214,-0.353 0.207,-0.321C0.203,-0.304 0.201,-0.268 0.201,-0.213L0.201,-0L0.067,-0L0.067,-0.531Z" style="fill:rgb(66,185,231);fill-rule:nonzero;"/>
            </g>
            <g transform="matrix(12,0,0,12,75.307,52.9412)">
                <path d="M0.068,-0.736L0.202,-0.736L0.202,-0.312L0.398,-0.531L0.565,-0.531L0.337,-0.277L0.593,-0L0.427,-0L0.202,-0.245L0.202,-0L0.068,-0L0.068,-0.736Z" style="fill:rgb(246,175,21);fill-rule:nonzero;"/>
            </g>
            <g transform="matrix(12,0,0,12,82.268,52.9412)">
                <path d="M0.459,-0.531L0.593,-0.531L0.593,-0L0.459,-0L0.459,-0.056C0.433,-0.031 0.407,-0.014 0.381,-0.003C0.355,0.008 0.327,0.014 0.296,0.014C0.227,0.014 0.168,-0.013 0.118,-0.066C0.068,-0.119 0.043,-0.186 0.043,-0.265C0.043,-0.347 0.067,-0.414 0.116,-0.466C0.164,-0.519 0.223,-0.545 0.292,-0.545C0.324,-0.545 0.354,-0.539 0.382,-0.527C0.41,-0.515 0.436,-0.497 0.459,-0.473L0.459,-0.531ZM0.319,-0.422C0.278,-0.422 0.244,-0.407 0.217,-0.378C0.189,-0.349 0.176,-0.312 0.176,-0.266C0.176,-0.22 0.19,-0.182 0.217,-0.153C0.245,-0.123 0.279,-0.108 0.32,-0.108C0.362,-0.108 0.396,-0.123 0.424,-0.152C0.452,-0.181 0.465,-0.219 0.465,-0.267C0.465,-0.313 0.452,-0.35 0.424,-0.379C0.396,-0.408 0.362,-0.422 0.319,-0.422Z" style="fill:rgb(66,185,231);fill-rule:nonzero;"/>
            </g>
        </g>
    </g>
</svg>
